<svg width="383" height="472" viewBox="0 0 383 472" fill="none" xmlns="http://www.w3.org/2000/svg">
<path d="M221.203 228.298C221.217 225.781 220.699 223.289 219.683 220.987C218.667 218.684 217.176 216.622 215.308 214.935C213.439 213.249 211.236 211.976 208.841 211.201C206.447 210.425 203.916 210.164 201.413 210.435C200.622 210.525 199.837 210.67 199.065 210.868L138.601 159.041L142.214 139.565L112.413 129.907L103.427 161.118C102.364 164.864 102.538 168.852 103.921 172.492C105.305 176.132 107.825 179.228 111.107 181.322L185.489 228.367C185.489 228.952 185.52 229.537 185.58 230.119C185.852 232.621 186.649 235.038 187.92 237.211C189.191 239.384 190.906 241.263 192.954 242.727C195.002 244.191 197.336 245.205 199.804 245.704C202.271 246.202 204.816 246.174 207.271 245.62C207.985 245.462 208.688 245.259 209.376 245.013C212.819 243.768 215.798 241.499 217.912 238.511C220.026 235.522 221.175 231.958 221.203 228.298V228.298Z" fill="#AF8E7B"/>
<path d="M74.4782 287.196H145.449C145.449 289.445 218.593 291.27 218.593 291.27C219.742 292.223 220.788 293.317 221.712 294.53C224.491 298.183 226.009 302.8 226 307.567V310.826C225.998 316.228 224.051 321.408 220.586 325.228C217.121 329.048 212.422 331.194 207.522 331.196H74.4782C69.5788 331.192 64.8813 329.044 61.4168 325.225C57.9524 321.406 56.0043 316.227 56 310.826V307.567C56.0068 302.167 57.9558 296.99 61.4197 293.171C64.8835 289.352 69.5796 287.204 74.4782 287.196V287.196Z" fill="#3F3D56"/>
<path d="M155.682 331.442H134.573V467.84H155.682V331.442Z" fill="#3F3D56"/>
<path d="M215.763 469.537C215.763 472.091 183.775 470.525 144.316 470.525C104.857 470.525 72.8687 472.091 72.8687 469.537C72.8687 466.983 104.857 446.731 144.316 446.731C183.775 446.731 215.763 466.983 215.763 469.537Z" fill="#3F3D56"/>
<path d="M196.707 451.112L216.613 451.11L226.084 399.478L196.703 399.48L196.707 451.112Z" fill="#AF8E7B"/>
<path d="M191.629 470.409L255.819 470.406V469.594C255.819 466.314 255.173 463.065 253.917 460.034C252.661 457.002 250.821 454.248 248.501 451.928C246.181 449.608 243.427 447.768 240.396 446.512C237.365 445.257 234.116 444.61 230.835 444.61H230.833L191.628 444.612L191.629 470.409Z" fill="#2F2E41"/>
<path d="M226.481 419.094L266.168 330.098C269.482 322.597 269.848 314.123 267.194 306.364C264.541 298.605 259.062 292.13 251.849 288.229L165.766 242.069L126.484 238.727L90.2496 235.434L89.9883 235.876C89.6541 236.441 81.8634 249.897 87.1296 264.653C91.1242 275.845 101.515 284.587 118.012 290.637C156.52 304.756 201.003 316.824 218.341 321.356C219.107 321.552 219.823 321.907 220.442 322.4C221.061 322.892 221.568 323.51 221.931 324.213C222.295 324.908 222.511 325.67 222.566 326.452C222.621 327.234 222.513 328.019 222.25 328.758L185.379 411.595C184.994 412.646 184.856 413.771 184.974 414.883C185.092 415.996 185.465 417.067 186.063 418.013C186.66 418.959 187.467 419.755 188.421 420.339C189.375 420.924 190.451 421.282 191.565 421.386L219.115 423.392C219.349 423.414 219.582 423.425 219.814 423.425C221.225 423.424 222.605 423.015 223.788 422.246C224.972 421.478 225.907 420.383 226.481 419.094Z" fill="#CBCBCB"/>
<path d="M183.716 451.112L203.622 451.11L213.094 414.194L183.713 414.196L183.716 451.112Z" fill="#AF8E7B"/>
<path d="M178.639 470.409L242.828 470.406V469.594C242.828 466.314 242.182 463.065 240.927 460.034C239.671 457.002 237.831 454.248 235.511 451.928C233.191 449.608 230.437 447.768 227.406 446.512C224.375 445.257 221.126 444.61 217.845 444.61H217.842L178.638 444.612L178.639 470.409Z" fill="#2F2E41"/>
<path d="M221.987 422.915L251.554 334.969C254.867 327.468 255.234 318.994 252.58 311.235C249.926 303.476 244.447 297.001 237.234 293.101L151.151 246.94L111.87 243.599L83.4892 241.137L83.4931 240.748C83.1589 241.312 75.3682 254.769 80.6344 269.524C84.629 280.716 86.9004 289.458 103.398 295.508C141.905 309.627 186.389 321.695 203.727 326.227C204.493 326.423 205.209 326.779 205.828 327.271C206.447 327.764 206.954 328.382 207.317 329.084C207.681 329.779 207.897 330.541 207.952 331.323C208.007 332.106 207.899 332.891 207.636 333.629L180.885 415.416C180.5 416.467 180.361 417.592 180.48 418.704C180.598 419.817 180.971 420.887 181.568 421.833C182.166 422.779 182.973 423.575 183.927 424.16C184.881 424.745 185.956 425.103 187.071 425.206L208.12 426.209L214.621 427.212C214.855 427.234 215.088 427.246 215.319 427.246C216.73 427.245 218.111 426.836 219.294 426.067C220.478 425.299 221.413 424.204 221.987 422.915Z" fill="#CBCBCB"/>
<path d="M137.075 242.761C138.977 241.415 166.303 255.751 171.174 244.385C148.441 187.552 164.107 163.01 150.181 130.419C147.729 124.798 144.034 119.806 139.375 115.818C134.715 111.83 129.213 108.95 123.28 107.394L87.1516 105.571L86.9645 105.661C78.8118 109.654 72.163 116.169 68.004 124.238C63.845 132.307 62.3971 141.502 63.8752 150.459C64.0037 185.928 85.2256 212.98 77.8052 238.706C77.494 239.782 77.4032 240.909 77.5382 242.02C77.6732 243.132 78.0313 244.205 78.5909 245.174C79.1335 246.112 79.8623 246.928 80.7324 247.573C81.6026 248.218 82.5956 248.677 83.6502 248.924L131.355 242.56C132.469 242.825 133.627 242.85 134.752 242.632C135.877 242.415 136.942 241.96 137.877 241.298L137.075 242.761Z" fill="#2F2E41"/>
<path d="M88.5 90.6964L113.5 89.1964L125 110.696L87 106.196L88.5 90.6964Z" fill="#AF8E7B"/>
<path d="M99.2088 92.0766C121.235 92.0766 139.091 74.2208 139.091 52.1945C139.091 30.1683 121.235 12.3124 99.2088 12.3124C77.1825 12.3124 59.3267 30.1683 59.3267 52.1945C59.3267 74.2208 77.1825 92.0766 99.2088 92.0766Z" fill="#AF8E7B"/>
<path d="M86.5054 88.8012C88.6244 89.7284 92.9638 72.8437 91.02 69.4666C88.1292 64.4443 88.3001 64.4803 86.3811 61.1576C84.4621 57.8349 84.0327 53.2869 86.5178 50.3633C89.0028 47.4396 94.7536 47.8275 95.8878 51.4931C95.1582 44.5306 102.045 38.9338 108.867 37.361C115.688 35.7882 122.884 36.7647 129.743 35.3651C137.704 33.7408 145.986 27.068 142.81 18.3141C142.265 16.8567 141.449 15.5156 140.405 14.3617C136.736 10.2357 131.602 8.47386 126.584 6.77034C116.142 3.22647 105.416 -0.361904 94.3965 0.0293455C76.2911 0.672116 59.177 13.188 53.077 30.2469C52.3176 32.3754 51.7293 34.5612 51.3177 36.7833C47.5355 57.1201 59.3452 77.18 78.5264 84.9242L86.5054 88.8012Z" fill="#2F2E41"/>
<path d="M295.654 152.935L300.228 180.091C300.279 180.394 300.245 180.705 300.131 180.99L264.251 270.643C264.109 270.998 263.849 271.294 263.516 271.48C263.182 271.667 262.794 271.734 262.417 271.67C262.04 271.605 261.697 271.413 261.444 271.126C261.191 270.839 261.045 270.474 261.029 270.092L259.509 234.065C259.499 233.826 259.54 233.587 259.63 233.365L292.457 152.583C292.594 152.246 292.837 151.963 293.15 151.777C293.462 151.59 293.827 151.511 294.189 151.551C294.55 151.591 294.889 151.747 295.154 151.997C295.418 152.247 295.594 152.576 295.654 152.935V152.935Z" fill="#3F3D56"/>
<path d="M293.114 155.019L297.46 178.349L265.619 260.16L261.485 233.843L293.114 155.019Z" fill="#6C63FF"/>
<path d="M153.804 270.226C154.588 273.284 257.444 276.594 258.511 275.669C259.468 274.484 260.297 273.201 260.985 271.842C262.063 269.917 263.061 267.986 263.061 267.986L261.37 235.457L160.049 224.629C160.049 224.629 155.567 251.775 154.159 264.246C153.841 266.222 153.722 268.226 153.804 270.226Z" fill="#3F3D56"/>
<path opacity="0.1" d="M248.114 238.898L248.123 266.923L203.309 263.737L205.292 235.853L248.114 238.898Z" fill="black"/>
<path opacity="0.1" d="M189.717 243.753L189.988 243.719L187.872 255.633L162.975 253.863L163.825 241.912L189.717 243.753Z" fill="black"/>
<path opacity="0.1" d="M153.804 270.226C154.588 273.284 257.444 276.594 258.511 275.669C259.468 274.484 260.297 273.201 260.985 271.842L154.159 264.246C153.841 266.222 153.722 268.226 153.804 270.226Z" fill="black"/>
<path d="M112.503 221.649L199.267 237.841C199.484 238.385 199.729 238.917 200.001 239.435C201.18 241.653 202.812 243.598 204.792 245.144C206.772 246.69 209.055 247.802 211.492 248.407C213.94 249.023 216.49 249.109 218.974 248.659C221.457 248.209 223.815 247.234 225.891 245.799C229.651 243.217 232.282 239.295 233.243 234.837C234.204 230.378 233.424 225.721 231.061 221.819C228.699 217.917 224.933 215.067 220.537 213.853C216.141 212.638 211.446 213.151 207.416 215.287C206.714 215.664 206.039 216.089 205.396 216.559L130.035 190.815L126.178 171.386L94.9185 173.454L98.1575 206.024C98.5505 209.825 100.158 213.398 102.743 216.212C105.327 219.027 108.75 220.934 112.503 221.649Z" fill="#AF8E7B"/>
<path d="M93.8595 187.981L139.282 173.052L128.686 142.63C127.279 138.59 124.49 135.178 120.81 132.996C117.131 130.814 112.798 130.003 108.579 130.706V130.706C104.31 131.417 100.437 133.632 97.6583 136.949C94.8795 140.266 93.3785 144.468 93.4263 148.795L93.8595 187.981Z" fill="#2F2E41"/>
<path d="M382 472H1C0.734784 472 0.480429 471.895 0.292892 471.707C0.105356 471.52 0 471.265 0 471C0 470.735 0.105356 470.48 0.292892 470.293C0.480429 470.105 0.734784 470 1 470H382C382.265 470 382.52 470.105 382.707 470.293C382.895 470.48 383 470.735 383 471C383 471.265 382.895 471.52 382.707 471.707C382.52 471.895 382.265 472 382 472Z" fill="#CBCBCB"/>
</svg>
